<svg xmlns="http://www.w3.org/2000/svg" viewBox="0 0 512 512" fill="#16a34a">
  <rect width="512" height="512" rx="100" fill="#f0fdf4"/>
  <path d="M368 320h-16c-8.8 0-16-7.2-16-16v-48c0-8.8 7.2-16 16-16h16c8.8 0 16 7.2 16 16v48c0 8.8-7.2 16-16 16zm-224 0h-16c-8.8 0-16-7.2-16-16v-48c0-8.8 7.2-16 16-16h16c8.8 0 16 7.2 16 16v48c0 8.8-7.2 16-16 16zm128 0h-16c-8.8 0-16-7.2-16-16v-48c0-8.8 7.2-16 16-16h16c8.8 0 16 7.2 16 16v48c0 8.8-7.2 16-16 16zm192-96h-32V160c0-35.3-28.7-64-64-64H144c-35.3 0-64 28.7-64 64v64H48c-26.5 0-48 21.5-48 48v160c0 26.5 21.5 48 48 48h32c0 26.5 21.5 48 48 48s48-21.5 48-48h160c0 26.5 21.5 48 48 48s48-21.5 48-48h32c26.5 0 48-21.5 48-48V272c0-26.5-21.5-48-48-48zm-304-64h192v64H160v-64zm-32 272c-8.8 0-16-7.2-16-16s7.2-16 16-16 16 7.2 16 16-7.2 16-16 16zm256 0c-8.8 0-16-7.2-16-16s7.2-16 16-16 16 7.2 16 16-7.2 16-16 16z"/>
</svg>